<?xml version="1.0" encoding="UTF-8"?>
<svg width="64px" height="64px" viewBox="0 0 64 64" version="1.1" xmlns="http://www.w3.org/2000/svg" xmlns:xlink="http://www.w3.org/1999/xlink">
    <!-- Generator: Sketch 55.2 (78181) - https://sketchapp.com -->
    <title>Group 19</title>
    <desc>Created with Sketch.</desc>
    <g id="Page-1" stroke="none" stroke-width="1" fill="none" fill-rule="evenodd">
        <g id="home-E_01+Alertas" transform="translate(-1099.000000, -421.000000)">
            <g id="Group-19" transform="translate(1099.000000, 421.000000)">
                <circle id="Oval-2" fill="#0079C7" cx="32" cy="32" r="32"></circle>
                <g id="Group-18" transform="translate(13.000000, 17.000000)" fill="#FFFFFF" fill-rule="nonzero">
                    <polygon id="Path" points="20.9474141 17.8654317 20.9474141 21.1190134 17.6250378 21.1190134 17.6250378 17.8654317 14.3684211 17.8654317 14.3684211 14.5430554 17.6220027 14.5430554 17.6220027 11.2894737 20.9443791 11.2894737 20.9443791 14.5430554 24.1979607 14.5430554 24.1979607 17.8654317"></polygon>
                    <path d="M19.4870356,33.143628 C18.3893134,33.143628 17.6574986,32.1678749 16.9256839,31.4360602 C15.8279617,30.4603072 2.41135776,17.4096106 1.19166649,15.2141663 C-1.36968518,10.4573703 0.337882601,4.35891396 4.97270943,1.55362403 C7.89996848,-0.275912874 11.6810114,-0.519851129 14.7302396,1.06574752 C16.6817456,1.91953141 18.023406,3.50513007 19.4870356,4.96875959 C20.7067268,3.74906832 21.9264181,2.40740792 23.3900476,1.4316549 C25.9513993,-0.153943747 29.3665349,-0.397882002 32.1718248,0.577871015 C37.4164972,2.52937705 40.3437563,8.50586428 38.3922503,13.7505367 C37.4164972,16.4338575 35.3430221,18.2633944 33.391516,20.2149005 C30.8301644,22.7762521 23.2680785,30.338338 22.1703564,31.4360602 C21.4385416,32.1678749 20.5847577,33.143628 19.4870356,33.143628 Z M10.2173819,2.7733153 C6.1924007,2.7733153 2.53332689,6.31041999 2.53332689,10.3354012 C2.53332689,12.7747837 3.75301816,14.6043206 5.46058594,16.3118884 C8.99769062,19.8489931 18.3893134,28.9966776 19.4870356,30.0943998 C23.8779241,25.8254803 33.7574234,16.1899193 34.2452999,15.5800736 C36.4407442,13.2626602 37.0505899,9.84752468 35.5869603,7.04223475 C34.2452999,4.35891396 31.1960718,2.52937705 28.1468436,2.7733153 C25.5854919,3.01725356 23.8779241,4.48088308 22.1703564,6.31041999 C21.4385416,7.04223475 20.7067268,8.01798777 19.4870356,8.01798777 C18.5112825,8.01798777 17.7794678,7.40814213 17.047653,6.67632737 C15.2181161,4.60285221 13.2666101,2.7733153 10.2173819,2.7733153 L10.2173819,2.7733153 Z" id="fav_off"></path>
                </g>
            </g>
        </g>
    </g>
</svg>