<svg width="42" height="57" viewBox="0 0 42 57" fill="none" xmlns="http://www.w3.org/2000/svg">
<path fill-rule="evenodd" clip-rule="evenodd" d="M37.2632 26.1579C36.8271 26.1579 36.4737 26.5114 36.4737 26.9474C35.6017 26.9474 34.8947 27.6543 34.8947 28.5263V30.1053V37.2105H35.6842V30.1055H36.4737V49.8421H38.0526L38.0532 49.8435H36.4737L38.4397 54.5807H38.5542C38.8381 54.5854 38.9341 54.5878 38.8421 54.5878C37.2632 54.5878 35.7025 54.2795 35.0749 54.1358C34.3506 53.972 33.8325 53.7806 33.4901 53.5526C32.3869 52.5658 31.3626 53.371 31.3626 53.371C31.0143 53.6977 30.6255 53.973 30.2091 54.1793C29.7808 54.3954 29.2904 54.5029 28.7536 54.5029H28.1832L28.569 54.0835C29.0101 53.6059 29.396 53.0197 29.7167 52.3477C30.0255 51.7023 30.0719 51.0608 29.8588 50.3858C29.6742 49.772 29.2825 49.3684 28.6687 49.1434C28.4033 49.0477 28.1378 48.9983 27.8822 48.9983C27.5428 48.9983 27.2014 49.0842 26.8678 49.2569C26.0942 49.6457 25.585 50.3148 25.3107 51.3046C25.0354 52.2973 25.064 53.1914 25.3936 53.9691L25.511 54.2434L25.2209 54.3115C24.767 54.4191 24.1167 54.4901 23.2809 54.5207C23.2286 54.5237 23.1793 54.5237 23.1329 54.5237H23.1329C22.2783 54.5237 21.7267 54.2247 21.4889 53.6296C21.0044 52.1957 19.7926 52.9418 19.7926 52.9418C19.3861 53.3049 18.8887 53.6572 18.3124 53.9868C17.7144 54.3293 17.0938 54.5049 16.4681 54.5049C16.1139 54.5049 15.8208 54.3904 15.5958 54.1654C15.2593 53.826 15.1024 53.2615 15.1084 52.4385C15.1172 51.2019 15.1764 50.3266 15.284 49.7651L15.3274 49.546L15.5494 49.5648C15.6659 49.5707 15.7863 49.5766 15.9067 49.5766C16.8263 49.5737 17.7944 49.3023 18.7841 48.7625C19.9248 48.1427 20.8741 47.4677 21.6053 46.7552C22.7618 45.6381 23.569 44.522 24.0012 43.4335C24.4334 42.348 24.6209 41.3858 24.5627 40.5776C24.4847 39.7417 24.168 39.0973 23.5878 38.6039C23.1684 38.2466 22.6908 38.0739 22.1263 38.0739C21.926 38.0739 21.7109 38.0986 21.4978 38.142C20.7488 38.3216 19.8942 38.8082 18.9598 39.5917C18.0164 40.3812 17.0632 41.6207 16.1257 43.2736C15.7991 43.8717 15.4902 44.4786 15.213 45.0865C14.9357 45.6914 14.6919 46.32 14.4887 46.9526L14.3002 47.5358L14.0259 46.9871C13.8719 46.6782 13.7456 46.2894 13.6469 45.8335C13.5512 45.3805 13.5019 44.8378 13.5019 44.218C13.5019 43.7187 13.2927 43.5154 12.7559 43.5154C12.225 43.5223 12 43.7532 12 44.2743C12.0217 45.1467 12.1608 46.0506 12.4135 46.9634C12.6572 47.8388 13.1358 48.5424 13.8354 49.0447L13.9647 49.1404L13.9341 49.2973C13.8107 49.9082 13.7239 50.6296 13.6716 51.4378C13.6223 52.2332 13.6775 52.998 13.8384 53.7105C13.9953 54.4082 14.2854 55.0033 14.7048 55.4779C15.1024 55.9319 15.7251 56.1599 16.5609 56.1579C17.1313 56.1579 17.7204 56.0375 18.3124 55.7997C18.9203 55.5589 19.5124 55.2421 20.0798 54.8562L20.286 54.7141L20.4281 54.9233C20.9679 55.7217 21.8382 56.1105 23.0835 56.1105H23.2187C24.5785 56.0799 25.7074 55.8914 26.5708 55.549L26.6853 55.5026L26.7899 55.5677C27.4125 55.9408 28.0855 56.1322 28.7851 56.1322C29.0723 56.1322 29.3713 56.0987 29.6732 56.0365C30.7311 55.8184 31.6498 55.3743 32.4056 54.7171L32.5536 54.5878L32.7145 54.7023C33.2513 55.0793 34.0378 55.4089 35.0581 55.6802L35.2217 55.7241C36.1597 55.976 36.8372 56.1579 38.4474 56.1579C38.5095 56.1579 38.6142 56.1563 38.7363 56.1544C39.1045 56.1488 39.6316 56.1408 39.6316 56.1668L40.0259 54.5807H40.0339L42 49.8435H40.4205L40.4211 49.8421H42V26.9474C42 26.5114 41.6465 26.1579 41.2105 26.1579V23.7895C41.2105 23.3535 40.8571 23 40.4211 23H38.0526C37.6166 23 37.2632 23.3535 37.2632 23.7895V26.1579ZM40.0259 54.5807L40.0263 54.5789H38.4474L38.5542 54.5807H40.0259ZM40.4205 49.8435L39.2368 53L38.0532 49.8435H40.4205ZM22.1698 39.7042C22.0553 39.7042 21.929 39.72 21.7938 39.7506C21.2451 39.8651 20.6185 40.2598 19.8785 40.9536C19.166 41.6226 18.3894 42.6805 17.5654 44.0898C17.226 44.6819 16.9181 45.2898 16.6467 45.8967C16.3724 46.5075 16.1376 47.1273 15.9471 47.7381L15.8327 48.1052L16.2116 48.0618C16.9921 47.976 17.8151 47.6799 18.6568 47.1865C19.4837 46.699 20.1646 46.1907 20.6768 45.6786C21.63 44.7687 22.302 43.8776 22.6691 43.0388C23.0391 42.1871 23.1931 41.4411 23.1259 40.8154C23.0766 40.473 22.972 40.1986 22.8112 39.9855C22.7154 39.8562 22.524 39.7052 22.1698 39.7052V39.7042ZM26.854 52.1296C26.9221 51.7506 27.0859 51.4269 27.3356 51.1644C27.5852 50.7174 27.9128 50.6246 28.1437 50.6217C28.1684 50.6217 28.1901 50.6217 28.2148 50.6246C28.4368 50.6434 28.5532 50.7539 28.6154 50.8437C28.7388 51.0292 28.7417 51.2937 28.6184 51.6796C28.5039 51.9973 28.3223 52.3121 28.0756 52.6141C27.8388 52.9072 27.5862 53.1658 27.3237 53.3819L27.0366 53.6227L26.9251 53.2645C26.8076 52.8944 26.783 52.5115 26.854 52.1296ZM38.0526 27.7368V49.0526H40.4211V27.7368H38.0526ZM38.8421 26.1579V24.5789H39.6316V26.1579H38.8421Z" fill="#0079C7"/>
<path fill-rule="evenodd" clip-rule="evenodd" d="M0 34.4375V1.8125C0 0.792969 0.792969 0 1.8125 0H18.6914C19.0312 0 19.3711 0.113281 19.5977 0.339844L27.7539 8.49609C27.9805 8.72266 28.0938 9.0625 28.0938 9.40234V34.4375C28.0938 35.457 27.3008 36.25 26.2812 36.25H1.8125C0.792969 36.25 0 35.457 0 34.4375ZM26.168 33.7578V10.7617C26.168 10.4219 25.9414 10.1953 25.6016 10.1953H19.5977C18.6914 10.1953 18.0117 9.51562 18.0117 8.60938V2.49219C18.0117 2.15234 17.7852 1.92578 17.4453 1.92578H2.49219C2.15234 1.92578 1.92578 2.15234 1.92578 2.49219V33.7578C1.92578 34.0977 2.15234 34.3242 2.49219 34.3242H25.6016C25.8281 34.3242 26.168 34.0977 26.168 33.7578ZM24.6953 8.15625L24.8086 8.26953V8.15625H24.6953ZM24.6953 8.15625L19.8242 3.28516V7.58984C19.8242 7.92969 20.0508 8.15625 20.3906 8.15625H24.6953Z" fill="#0079C7"/>
</svg>
