<svg width="63" height="57" viewBox="0 0 63 57" fill="none" xmlns="http://www.w3.org/2000/svg">
<path fill-rule="evenodd" clip-rule="evenodd" d="M35.7656 29.6694V36H0V6.20744H6.23438V0H42V29.6681H35.7656V29.6694ZM33.0173 29.7926H6.15169V9.06223H2.74706V33.2273H33.0173V29.7926ZM8.98144 2.6906H39.2516V26.8967H8.98144V2.6906ZM33.6486 22.2292V18.4144H35.2813V22.2292L35.3509 23.8764H12.8822V18.4144H14.5149V22.2292H16.3485V20.2642H17.9813V22.2292H19.8148V18.4144H21.4476V22.2292H23.2811V20.2642H24.9139V22.2292H26.7186V18.4144H28.3802V22.2292H30.1849V20.2642H31.8176V22.2292H33.6486ZM26.775 10.0686C27.4522 10.7425 28.2634 11.0775 29.2071 11.0775C30.1494 11.0775 30.954 10.7465 31.6102 10.0765C32.2704 9.41445 32.5986 8.61071 32.5986 7.67589C32.5986 6.72385 32.2665 5.91746 31.5984 5.25143C30.9343 4.58541 30.1337 4.25438 29.2071 4.25438C28.2594 4.22127 27.4522 4.54039 26.775 5.21436C26.0977 5.88436 25.7617 6.69207 25.7617 7.62689C25.7617 8.5829 26.0977 9.39459 26.775 10.0686ZM29.2064 5.66059C28.6646 5.66074 28.2015 5.85141 27.8119 6.23525C27.4221 6.61924 27.237 7.08401 27.2541 7.62557C27.2541 8.1711 27.4431 8.63454 27.8237 9.01589C28.2056 9.40121 28.665 9.59055 29.2018 9.59055C29.7439 9.59055 30.2019 9.39988 30.5799 9.01589C30.9619 8.63057 31.1496 8.16713 31.1496 7.62557C31.1496 7.08401 30.9606 6.61527 30.5799 6.23525C30.2073 5.85538 29.7482 5.66074 29.2064 5.66059ZM29.2064 5.66059C29.2066 5.66059 29.2068 5.66059 29.2071 5.66059H29.2058C29.206 5.66059 29.2062 5.66059 29.2064 5.66059ZM25.5609 15.5504V16.8705H25.5596H24.1159V15.5504C24.1159 14.7361 24.4033 14.0356 24.9769 13.457C25.5504 12.8783 26.2395 12.5883 27.0519 12.5883H31.3097C32.1182 12.5883 32.8164 12.8783 33.3979 13.457C33.9793 14.0356 34.2799 14.7308 34.2956 15.5504V16.8705H32.8519V15.5504C32.8519 15.1412 32.7049 14.789 32.4096 14.4911C32.1143 14.1932 31.7651 14.0435 31.3596 14.0435H27.0532C26.6319 14.0435 26.2789 14.1932 25.9914 14.4911C25.704 14.789 25.5609 15.1412 25.5609 15.5504Z" fill="#0079C7"/>
<path fill-rule="evenodd" clip-rule="evenodd" d="M53.5925 35.1117L54.8789 36.1288C54.8975 36.1474 54.916 36.1706 54.93 36.1989C54.9486 36.2263 54.9578 36.2546 54.9578 36.2779C54.9625 36.315 54.9625 36.3522 54.9578 36.3842C54.9486 36.4172 54.9346 36.4446 54.916 36.4729L46.4918 47.9757C46.4732 48.004 46.4453 48.0226 46.4175 48.0412L46.3199 48.0732H46.3014C46.2689 48.0732 46.2363 48.0644 46.2085 48.0547C46.1806 48.0361 46.1574 48.0226 46.1435 48.004L41.5598 43.2527C41.5412 43.2253 41.5273 43.2021 41.5134 43.1696C41.4994 43.1464 41.4948 43.1181 41.4948 43.0907C41.4948 43.0535 41.4994 43.0205 41.5134 42.9931C41.5273 42.9648 41.5412 42.9416 41.5598 42.923L42.6976 41.7295C42.744 41.683 42.7998 41.6603 42.8648 41.6603C42.9298 41.6603 42.9855 41.683 43.032 41.7295L46.1202 44.9297L53.2628 35.1675C53.2953 35.1117 53.3464 35.0797 53.4114 35.0699C53.4764 35.0653 53.5368 35.075 53.5925 35.1117ZM47.9012 54.9562C55.0452 54.9562 60.8576 49.1442 60.8576 42.0002C60.8576 34.8563 55.0452 29.0443 47.9012 29.0443C40.7569 29.0443 34.9448 34.8563 34.9448 42.0002C34.9448 49.1442 40.7569 54.9562 47.9012 54.9562ZM47.9012 27C56.1723 27 62.901 33.7287 62.901 42.0002C62.901 50.2717 56.1723 57.0005 47.9012 57.0005C39.6302 57.0005 32.901 50.2717 32.901 42.0002C32.901 33.7287 39.6302 27 47.9012 27Z" fill="#0079C7"/>
</svg>
