<svg width="20" height="19" viewBox="0 0 20 19" fill="none" xmlns="http://www.w3.org/2000/svg">
<path fill-rule="evenodd" clip-rule="evenodd" d="M11.846 0H17.528L17.5274 0.00062502C18.8768 0.00062502 19.9669 1.12379 20 2.50445V6.86959C20 8.21901 18.875 9.34217 17.5274 9.34217H14.9923L16.0511 8.34589H17.4968C18.2999 8.34589 18.9737 7.67149 18.9737 6.86896V2.50383C18.9737 1.7013 18.2993 1.02753 17.4968 1.02753H11.8147C11.0116 1.02753 10.3378 1.7013 10.3378 2.50383V6.86896C10.3378 7.67149 11.0122 8.34526 11.8147 8.34526H14.5748L11.2991 11.396C11.2372 11.4916 11.1085 11.5247 10.9791 11.5247C10.8497 11.5247 10.721 11.4604 10.6253 11.3647C10.4341 11.1716 10.4653 10.851 10.6585 10.6578L12.1041 9.31029H11.846C10.4966 9.31029 9.37342 8.18526 9.37342 6.83771V2.47258C9.37342 1.12316 10.4985 0 11.846 0ZM8.18776 9.08403C8.18776 11.041 6.54895 12.551 5.13704 12.551C3.75637 12.551 2.08632 10.9785 2.08632 9.08403V8.37714C2.08632 6.96459 3.05072 5.58392 5.13704 5.58392C7.38523 5.58392 8.18776 7.02959 8.18776 8.37714V9.08403ZM3.08197 8.34589C3.08197 7.25398 3.85137 6.54895 5.13641 6.54895C5.65018 6.54895 6.06831 6.64458 6.38832 6.83834C6.2927 7.09585 5.84331 7.80149 4.07763 8.09025C3.85325 8.12338 3.69262 8.34776 3.72387 8.57277C3.75699 8.7659 3.94825 8.92653 4.142 8.92653H4.20638C5.90768 8.63715 6.64583 7.99462 6.99959 7.48086C7.12835 7.73837 7.19273 8.02588 7.19273 8.34776V9.05466C7.19273 10.5003 5.97206 11.5585 5.13829 11.5585C4.33576 11.5585 3.08385 10.4353 3.08385 9.05466L3.08197 8.34589ZM4.65452 13.6761C4.65452 13.4179 4.84765 13.1935 5.13704 13.1935C5.39329 13.1935 5.61768 13.4185 5.64893 13.6742V18.1393H4.65452V13.6761ZM3.01759 12.711H2.95322L2.85759 12.7441L2.05506 13.0023C1.83068 13.0648 0 13.6117 0 15.313V18.1374H0.994406V15.313C0.994406 14.3186 2.27945 13.9654 2.34195 13.9654L2.66258 13.8698L3.0476 18.1393H4.042L3.59261 13.1629C3.53199 12.9048 3.3076 12.6804 3.01822 12.7116L3.01759 12.711ZM7.41648 12.7754L8.18588 13.0335L8.18713 13.0329C8.41151 13.0973 10.2416 13.6423 10.2416 15.3124V18.1349H9.27842V15.3105C9.27842 14.3167 7.99525 13.9629 7.93087 13.9629H7.89775L7.60836 13.8673L7.22335 18.1368H6.22894L6.67833 13.1604C6.67833 12.9042 6.93459 12.6779 7.1921 12.711H7.25648L7.41648 12.7754ZM15.5061 2.4707H13.8048V3.65824H12.6173V5.35954H13.8048V6.54708H15.5061V5.35954H16.6936V3.65824H15.5061V2.4707ZM16.2136 4.91015V4.17201H15.0261V2.98447H14.2879V4.17201H13.1004V4.91015H14.2879V6.09769H15.0261V4.91015H16.2136Z" fill="#FF7C40"/>
</svg>
